<svg width="40" height="40" viewBox="0 0 40 40" fill="none" xmlns="http://www.w3.org/2000/svg">
<path d="M20.1648 39.8762L23.9581 30.1583C24.0224 29.9935 23.9688 29.7606 23.8388 29.6406L21.475 27.458C21.3449 27.3382 21.239 27.0954 21.239 26.9184L21.2388 25.7655C21.2388 25.6498 21.2846 25.6307 21.3073 25.6258C23.4587 25.1429 25.157 23.4499 25.6495 21.3022C25.6543 21.2813 25.6604 21.2386 25.7213 21.2387H27.0071C27.1839 21.2387 27.4266 21.3449 27.5466 21.4751L29.6409 23.7428C29.7609 23.8729 29.9941 23.9264 30.1588 23.8621L39.8762 20.0691C40.0412 20.0048 40.0413 19.8997 39.8762 19.8353L30.1585 16.0422C29.9938 15.9779 29.7609 16.0315 29.6409 16.1616L27.5466 18.4296C27.4264 18.5595 27.1839 18.6658 27.0068 18.6658L25.6905 18.6659C25.6302 18.6659 25.6197 18.6122 25.6127 18.5857C25.0838 16.5321 23.4462 14.9191 21.3777 14.4274C21.3318 14.4165 21.2387 14.391 21.2387 14.3005L21.2385 12.9935C21.2387 12.8166 21.3448 12.5739 21.4749 12.4537L23.7428 10.3594C23.8727 10.2393 23.9264 10.0064 23.862 9.84163L20.0691 0.123668C20.0049 -0.0412227 19.8997 -0.0412227 19.8354 0.123668L16.0423 9.84153C15.9781 10.0064 16.0317 10.2392 16.1616 10.3592L18.4297 12.4536C18.5596 12.5737 18.6659 12.8165 18.6659 12.9933V14.3204C18.6659 14.4513 18.5962 14.4582 18.5617 14.4674C16.5735 15.0002 15.0078 16.5751 14.4875 18.5685C14.4791 18.6007 14.4705 18.6662 14.3999 18.6662H12.9937C12.8166 18.6661 12.5738 18.56 12.4538 18.43L10.3592 16.1619C10.239 16.0317 10.006 15.9781 9.84134 16.0425L0.123666 19.8354C-0.0412219 19.8999 -0.0412219 20.0049 0.123666 20.0693L9.84154 23.8624C10.0063 23.9267 10.2391 23.8731 10.3591 23.7432L12.4535 21.4755C12.5735 21.3452 12.8162 21.239 12.9932 21.239H14.3694C14.4353 21.239 14.4458 21.3 14.4529 21.3302C14.9375 23.3977 16.5404 25.0384 18.5867 25.577C18.613 25.5838 18.6658 25.5989 18.6658 25.7311V27.0954C18.6658 27.2724 18.5595 27.5152 18.4295 27.6352L16.2572 29.6413C16.1273 29.7613 16.0736 29.9944 16.1379 30.1589L18.549 36.3367C18.6134 36.5016 18.6659 36.6453 18.6659 36.6562C18.6661 36.667 18.6696 36.6758 18.6738 36.6758C18.6781 36.6757 18.7341 36.8109 18.7984 36.9755L19.9308 39.8768C19.9954 40.0412 20.1005 40.0412 20.1648 39.8762ZM17.0054 20.0183C17.0055 18.3405 18.3704 16.9755 20.048 16.9755C21.7259 16.9755 23.0907 18.3406 23.0907 20.0182C23.0907 21.6959 21.7257 23.061 20.048 23.061C18.3703 23.0609 17.0054 21.696 17.0054 20.0183Z" fill="#50a34e"/>
</svg>